<?xml version="1.0" encoding="utf-8"?>
<!-- Generator: Adobe Illustrator 26.1.0, SVG Export Plug-In . SVG Version: 6.00 Build 0)  -->
<svg version="1.1" id="Capa_1" xmlns="http://www.w3.org/2000/svg" xmlns:xlink="http://www.w3.org/1999/xlink" x="0px" y="0px"
	 viewBox="0 0 235 30" style="enable-background:new 0 0 235 30;" xml:space="preserve">
<style type="text/css">
	.st0{fill:#37348B;}
	.st1{fill:#FFFFFF;}
	.st2{fill:#312D5A;}
	.st3{fill:#3873B9;}
	.st4{fill:#6E377F;}
	.st5{fill:#8CCAAE;}
	.st6{fill:#3A3077;}
	.st7{fill:#D9E5EC;}
	.st8{fill:#00A0CF;}
	.st9{fill:#0081C7;}
	.st10{fill:#364B9B;}
	.st11{fill:#BEE2E9;}
</style>
<g>
	<g>
		<path d="M158.93,2.81h2.43v11.12h-2.43V2.81z"/>
		<path d="M163.77,2.81h2.45l4.66,7.09h0.03V2.81h2.25v11.12h-2.25l-4.85-7.15h-0.03v7.15h-2.25V2.81z"/>
		<path d="M174.84,11.4l1.85-1.1c0.62,1.22,1.73,1.89,3,1.89c1.13,0,1.94-0.42,1.94-1.28c0-0.84-0.8-1.2-2.25-1.61
			c-1.98-0.56-4.06-1.07-4.06-3.4c0-2.07,1.62-3.32,4.01-3.32c2.28,0,3.64,1.1,4.42,2.28l-1.7,1.29c-0.59-0.95-1.65-1.58-2.73-1.58
			c-1.04,0-1.61,0.45-1.61,1.11c0,0.89,0.83,1.2,2.28,1.61c1.95,0.53,4.03,1.14,4.03,3.44c0,1.79-1.35,3.38-4.45,3.38
			C177.17,14.13,175.67,12.99,174.84,11.4z"/>
		<path d="M185.84,2.81h4.04c2.37,0,4.54,0.63,4.54,3.56c0,2.99-2.34,3.61-4.57,3.61h-1.58v3.95h-2.43V2.81z M189.94,8.08
			c1.52,0,2.09-0.59,2.09-1.65c0-1.04-0.56-1.62-2.09-1.62h-1.67v3.27H189.94z"/>
		<path d="M196.11,2.81h2.43v11.12h-2.43V2.81z"/>
		<path d="M200.95,2.81h4.18c2.73,0,4.37,0.98,4.37,3.44c0,1.76-0.83,2.72-2.31,3.17l2.48,4.51h-2.58l-2.31-4.19h-1.41v4.19h-2.4
			V2.81z M205.02,7.84c1.41,0,2.09-0.41,2.09-1.53c0-1.1-0.68-1.5-2.09-1.5h-1.67v3.03H205.02z"/>
		<path d="M211.54,2.81h7.57v2.04h-5.12v2.39h3.71v1.94h-3.71v2.76h5.39v1.98h-7.84V2.81z"/>
		<path d="M157.91,24.67c0-1.8,1.2-2.67,2.55-3.32c-0.44-0.84-0.71-1.65-0.71-2.45c0-1.46,0.98-2.81,3.15-2.81
			c2.03,0,2.88,1.19,2.88,2.43c0,1.67-1.22,2.51-2.57,3.18c0.2,0.29,0.44,0.57,0.68,0.87c0.44,0.54,0.84,1.01,1.22,1.37
			c0.36-0.62,0.6-1.37,0.71-2.25h2.06c-0.17,1.17-0.51,2.39-1.14,3.41c0.63,0.35,1.29,0.5,2.04,0.5v1.97
			c-1.44-0.01-2.54-0.29-3.55-0.86c-0.83,0.57-1.85,0.92-3.14,0.92C159.34,27.63,157.91,26.47,157.91,24.67z M163.64,25.51
			c-0.48-0.47-0.98-1.04-1.52-1.71c-0.27-0.35-0.54-0.71-0.78-1.04c-0.6,0.41-0.98,0.92-0.98,1.56c0,1.04,0.71,1.62,1.76,1.62
			C162.68,25.95,163.19,25.8,163.64,25.51z M163.79,18.62c0-0.45-0.21-0.95-0.83-0.95c-0.54,0-0.98,0.36-0.98,1.1
			c0,0.54,0.17,1.08,0.48,1.67C163.23,20,163.79,19.46,163.79,18.62z"/>
		<path d="M173.49,21.85c0-3.86,2.24-5.75,5.05-5.75c2.81,0,4.03,1.5,4.51,3.5l-2.31,0.68c-0.36-1.28-0.9-2.15-2.21-2.15
			c-1.68,0-2.58,1.43-2.58,3.73c0,2.34,0.93,3.82,2.61,3.82c1.31,0,1.95-0.83,2.34-2.34l2.3,0.51c-0.54,2.24-1.86,3.8-4.66,3.8
			C175.64,27.63,173.49,25.77,173.49,21.85z"/>
		<path d="M184.97,16.3h4.18c2.73,0,4.37,0.98,4.37,3.44c0,1.76-0.83,2.72-2.31,3.17l2.48,4.51h-2.58l-2.31-4.19h-1.41v4.19h-2.4
			V16.3z M189.04,21.34c1.41,0,2.09-0.41,2.09-1.53c0-1.1-0.68-1.5-2.09-1.5h-1.67v3.03H189.04z"/>
		<path d="M195.56,16.3h7.57v2.04h-5.12v2.39h3.71v1.94h-3.71v2.76h5.39v1.98h-7.84V16.3z"/>
		<path d="M208.12,16.26h2.33l3.94,11.16h-2.48l-0.83-2.48h-3.79l-0.86,2.48h-2.25L208.12,16.26z M210.5,23.17l-1.28-3.79h-0.03
			l-1.31,3.79H210.5z"/>
		<path d="M216.92,18.35h-3.31V16.3h9.07v2.04h-3.32v9.07h-2.45V18.35z"/>
		<path d="M224.16,16.3h7.57v2.04h-5.12v2.39h3.71v1.94h-3.71v2.76H232v1.98h-7.84V16.3z"/>
	</g>
	<g>
		<path d="M30.71,18.67c-0.47,2.74-2.44,9.38-13.77,9.38C9.14,28.05,3,23.72,3,14.75C3,7.57,7.51,2.22,17.31,2.22
			c11.02,0,12.65,7.14,13.02,8.46h-4.82c-0.27-0.85-2.17-4.33-7.94-4.33c-6.82,0-9.67,3.83-9.67,8.94c0,5.65,4.1,8.63,9.4,8.63
			c5.63,0,8.11-3.35,8.58-5.25H30.71z"/>
		<path d="M44.33,2.83h5.49L61.8,27.44h-5.09l-2.58-5.65H39.92l-2.61,5.65h-5.12L44.33,2.83z M52.23,17.66l-4.8-10.21l-0.36-0.76
			l-0.37,0.78l-4.79,10.19H52.23z"/>
		<path d="M124.94,2.83h4.82v20.34h17.88v4.27h-22.69V2.83z"/>
		<path d="M74.25,13.77l10.19,13.68h5.94l-7.56-10.02c3.63-0.2,6.89-2.71,6.89-7.24c0-6.03-4.21-7.35-10.04-7.35H64.84v24.61h4.82
			V6.83h9.29c3.93,0,5.94,0.58,5.94,3.45c0,2.91-2,3.49-5.94,3.49H74.25z"/>
	</g>
	<g>
		<polygon class="st0" points="106.99,8.7 103.58,7.3 106.93,1.61 		"/>
		<path class="st0" d="M98.84,10.31l4.76-3.01L101.6,6.1c0,0-0.92,1.25-1.38,1.86C99.75,8.56,98.84,10.31,98.84,10.31z"/>
		<polygon class="st1" points="103.27,12.62 106.99,8.7 103.58,7.3 		"/>
		<path class="st2" d="M101.6,6.1l1.98,1.21l3.34-5.69c0,0-1.9,1.12-2.99,2.06C102.85,4.62,101.6,6.1,101.6,6.1z"/>
		<polygon class="st3" points="106.99,8.7 110.37,7.24 106.93,1.61 		"/>
		<path class="st4" d="M115.17,10.17l-4.81-2.93L112.33,6c0,0,0.94,1.23,1.42,1.83C114.22,8.43,115.17,10.17,115.17,10.17z"/>
		<polygon class="st5" points="110.78,12.55 106.99,8.7 110.37,7.24 		"/>
		<path class="st2" d="M112.33,6l-1.96,1.24l-3.44-5.63c0,0,1.92,1.09,3.02,2.01C111.06,4.55,112.33,6,112.33,6z"/>
		<g>
			<path class="st4" d="M103.27,27.75l0.77-1.21l3.13,1.85c0,0-0.71,0.01-1.74-0.13C104.27,28.09,103.27,27.75,103.27,27.75z"/>
			<path class="st6" d="M111.02,27.68l-0.79-1.2l-3.05,1.9c0,0,0.66,0,1.68-0.16C110.03,28.04,111.02,27.68,111.02,27.68z"/>
			<polygon class="st3" points="99.5,16.02 103.27,12.62 103.58,7.3 98.84,10.31 			"/>
			<path class="st0" d="M97.03,15.71l2.47,0.31l-0.67-5.71c0,0-0.89,2.05-1.24,3.09C97.25,14.43,97.03,15.71,97.03,15.71z"/>
			<path class="st2" d="M96.73,19.67l2.78-3.65l-2.47-0.31c0,0-0.18,1.3-0.24,2.2C96.73,18.8,96.73,19.67,96.73,19.67z"/>
			<polygon class="st7" points="101.59,19.81 103.27,12.62 99.49,16.02 			"/>
			<polygon class="st8" points="99.88,23.2 101.59,19.81 99.49,16.02 96.73,19.67 			"/>
			<path class="st2" d="M98.15,23.94l1.73-0.74l-3.16-3.52c0,0,0.19,1.78,0.47,2.59C97.48,23.07,98.15,23.94,98.15,23.94z"/>
			<polygon class="st0" points="102.96,23.51 101.59,19.81 99.88,23.2 			"/>
			<polygon class="st3" points="99.97,25.88 104.04,26.54 102.96,23.51 99.88,23.2 			"/>
			<path class="st9" d="M98.15,23.94c0,0,0.43,0.54,0.85,1.01c0.19,0.21,0.97,0.93,0.97,0.93l-0.09-2.69L98.15,23.94z"/>
			<path class="st6" d="M103.27,27.75c-0.64-0.23-1.14-0.47-1.61-0.74c-0.89-0.51-1.68-1.12-1.68-1.12l4.07,0.65L103.27,27.75z"/>
			<polygon class="st8" points="114.6,15.89 110.78,12.55 110.37,7.24 115.17,10.17 			"/>
			<path class="st0" d="M117.06,15.54l-2.46,0.35l0.57-5.72c0,0,0.92,2.04,1.29,3.06C116.83,14.26,117.06,15.54,117.06,15.54z"/>
			<path class="st3" d="M117.44,19.5l-2.84-3.61l2.46-0.35c0,0,0.2,1.3,0.28,2.19C117.42,18.62,117.44,19.5,117.44,19.5z"/>
			<polygon class="st7" points="112.58,19.71 110.78,12.54 114.61,15.88 			"/>
			<polygon class="st9" points="114.34,23.07 112.58,19.72 114.61,15.89 117.44,19.5 			"/>
			<path class="st2" d="M116.09,23.79l-1.74-0.71l3.1-3.58c0,0-0.16,1.78-0.42,2.6C116.75,22.9,116.09,23.79,116.09,23.79z"/>
			<polygon class="st7" points="111.27,23.44 112.58,19.72 114.34,23.07 			"/>
			<polygon class="st10" points="110.24,26.49 107.11,25.33 111.27,23.44 			"/>
			<polygon class="st4" points="114.3,25.76 110.24,26.49 111.27,23.44 114.34,23.07 			"/>
			<path class="st6" d="M116.09,23.79c0,0-0.42,0.55-0.84,1.03c-0.19,0.22-0.95,0.95-0.95,0.95l0.05-2.69L116.09,23.79z"/>
			<path class="st10" d="M111.03,27.68c0.63-0.24,1.14-0.49,1.6-0.77c0.88-0.52,1.66-1.15,1.66-1.15l-4.06,0.72L111.03,27.68z"/>
			<polygon class="st0" points="110.25,26.48 107.12,25.33 104.04,26.54 107.17,28.39 			"/>
			<polygon class="st11" points="112.58,19.72 110.78,12.55 106.99,8.7 103.27,12.62 101.59,19.81 102.96,23.51 107.12,25.33 
				111.27,23.44 			"/>
			<polygon class="st10" points="102.96,23.51 107.11,25.33 104.04,26.54 			"/>
		</g>
	</g>
</g>
</svg>
